<?xml version="1.0" encoding="UTF-8" standalone="no"?>
<svg
   xmlns:dc="http://purl.org/dc/elements/1.1/"
   xmlns:cc="http://creativecommons.org/ns#"
   xmlns:rdf="http://www.w3.org/1999/02/22-rdf-syntax-ns#"
   xmlns:svg="http://www.w3.org/2000/svg"
   xmlns="http://www.w3.org/2000/svg"
   xmlns:sodipodi="http://sodipodi.sourceforge.net/DTD/sodipodi-0.dtd"
   xmlns:inkscape="http://www.inkscape.org/namespaces/inkscape"
   viewBox="0 0 46 59.519112"
   width="46"
   height="59.519112"
   version="1.1"
   id="svg12"
   sodipodi:docname="icons8-mongodb.svg"
   inkscape:version="0.92.2 (5c3e80d, 2017-08-06)">
  <metadata
     id="metadata18">
    <rdf:RDF>
      <cc:Work
         rdf:about="">
        <dc:format>image/svg+xml</dc:format>
        <dc:type
           rdf:resource="http://purl.org/dc/dcmitype/StillImage" />
      </cc:Work>
    </rdf:RDF>
  </metadata>
  <defs
     id="defs16" />
  <sodipodi:namedview
     pagecolor="#ffffff"
     bordercolor="#666666"
     borderopacity="1"
     objecttolerance="10"
     gridtolerance="10"
     guidetolerance="10"
     inkscape:pageopacity="0"
     inkscape:pageshadow="2"
     inkscape:window-width="1366"
     inkscape:window-height="705"
     id="namedview14"
     showgrid="false"
     inkscape:zoom="4.9166667"
     inkscape:cx="18"
     inkscape:cy="24.408"
     inkscape:window-x="-8"
     inkscape:window-y="-8"
     inkscape:window-maximized="1"
     inkscape:current-layer="svg12" />
  <path
     d="m 41,20.411111 c 0,20.5 -18,26.7 -18,26.7 0,0 -18,-6.2 -18,-26.7 0,-2.5 0.2,-4.6 0.4,-6.3 0.3,-2.5 2,-4.5 4.3999997,-5.1 C 12.9,8.111111 17.8,7.111111 23,7.111111 c 5.2,0 10.1,1 13.3,1.9 2.4,0.6 4.1,2.7 4.4,5.1 0.1,1.7 0.3,3.9 0.3,6.3 z"
     id="path2"
     inkscape:connector-curvature="0"
     style="fill:#5d4037;stroke-width:1" />
  <path
     d="m 23,10.111111 c 4.9,0 9.5,1 12.5,1.8 1.2,0.3 2,1.3 2.2,2.6 0.2,1.9 0.3,3.9 0.3,5.9 0,15.6 -11.5,21.9 -15,23.4 -3.5,-1.6 -15,-7.9 -15,-23.4 0,-2 0.1,-4 0.3000003,-5.9 0.099999,-1.3 0.9999994,-2.3 2.1999997,-2.6 3,-0.8 7.6,-1.8 12.5,-1.8 m 0,-3 c -5.2,0 -10.1,1 -13.2999997,1.9 -2.3000003,0.6 -4.1000003,2.7 -4.3000003,5.1 -0.2,1.7 -0.4,3.9 -0.4,6.3 0,20.5 18,26.7 18,26.7 0,0 18,-6.2 18,-26.7 0,-2.5 -0.2,-4.6 -0.4,-6.3 -0.3,-2.5 -2,-4.5 -4.4,-5.1 -3.1,-0.9 -8,-1.9 -13.2,-1.9 z"
     id="path4"
     inkscape:connector-curvature="0"
     style="fill:#4caf50;stroke-width:1" />
  <path
     d="m 22,31.111111 h 2 v 8 h -2 z"
     id="path6"
     inkscape:connector-curvature="0"
     style="fill:#dcedc8;stroke-width:1" />
  <path
     d="m 23,13.111111 c 0,0 -6,5 -6,13 0,5.2 3.3,8.5 5,10 l 1,-3 1,3 c 1.7,-1.5 5,-4.8 5,-10 0,-8 -6,-13 -6,-13 z"
     id="path8"
     inkscape:connector-curvature="0"
     style="fill:#4caf50;stroke-width:1" />
  <path
     d="m 23,13.111111 c 0,0 -6,5 -6,13 0,5.2 3.3,8.5 5,10 l 1,-3 z"
     id="path10"
     inkscape:connector-curvature="0"
     style="fill:#81c784;stroke-width:1" />
  <path
     inkscape:connector-curvature="0"
     style="fill:#8e714e;stroke-width:0.08163249"
     d="m 37.667469,48.543365 c -0.03764,0.0075 -0.07528,0.09042 -0.07528,0.135607 -0.0075,0.301311 -0.01508,1.099872 -0.01508,1.64223 0,0.01508 0.02256,0.04517 0.04517,0.04517 0.112982,0.0075 0.384198,0.01508 0.617704,0.01508 0.323937,0 0.512264,-0.04517 0.617775,-0.09036 0.271143,-0.135607 0.399211,-0.429446 0.399211,-0.753382 0,-0.730686 -0.512263,-1.009443 -1.273118,-1.009443 -0.05273,-0.0074 -0.203341,-0.0074 -0.316395,0.01508 z m 1.943611,3.367348 c 0,-0.745769 -0.549969,-1.160134 -1.544332,-1.160134 -0.04517,0 -0.361572,-0.0075 -0.436919,0.0075 -0.02261,0.0075 -0.05272,0.02263 -0.05272,0.04525 0,0.534818 -0.0075,1.386099 0.01508,1.717505 0.01501,0.14315 0.12053,0.34656 0.248593,0.406823 0.135534,0.07534 0.444458,0.09035 0.655341,0.09035 0.59515,0 1.114954,-0.331406 1.114954,-1.107342 v 0 z m -3.480331,-3.781642 c 0.07528,0 0.301309,0.02256 0.881378,0.02256 0.5499,0 0.986818,-0.01501 1.521707,-0.01501 0.655342,0 1.559343,0.233506 1.559343,1.212784 0,0.482167 -0.339017,0.866365 -0.783478,1.054692 -0.02256,0.0075 -0.02256,0.02256 0,0.0301 0.632788,0.158232 1.190301,0.549972 1.190301,1.2882 0,0.723216 -0.452003,1.182688 -1.107413,1.468986 -0.399282,0.173245 -0.89646,0.233508 -1.401182,0.233508 -0.384198,0 -1.416196,-0.04517 -1.988722,-0.0301 -0.06026,-0.02262 0.05272,-0.293839 0.105442,-0.339018 0.135606,-0.0075 0.241049,-0.01508 0.384195,-0.06026 0.203412,-0.05272 0.225967,-0.112982 0.256133,-0.421835 0.01508,-0.263673 0.01508,-1.197842 0.01508,-1.860725 0,-0.911544 0.0075,-1.529248 0,-1.830558 -0.0075,-0.233509 -0.09042,-0.308854 -0.256132,-0.354103 -0.128066,-0.02256 -0.339021,-0.05272 -0.512264,-0.07527 -0.03771,-0.03771 0.09036,-0.293839 0.135607,-0.323936 z m -4.346695,4.685644 c 0.180857,0.143079 0.534886,0.203341 0.85128,0.203341 0.406824,0 0.813574,-0.07527 1.205312,-0.429376 0.399283,-0.361573 0.677968,-0.919015 0.677968,-1.807934 0,-0.851281 -0.323937,-1.544332 -0.986819,-1.951083 -0.376657,-0.233578 -0.858824,-0.331478 -1.416265,-0.331478 -0.165703,0 -0.323935,0.0075 -0.421837,0.05273 -0.02261,0.01508 -0.07534,0.08289 -0.07534,0.12053 -0.01509,0.15069 -0.01509,1.310754 -0.01509,1.988792 0,0.70059 0,1.679867 0.01509,1.79285 0,0.113055 0.05272,0.286297 0.165705,0.361642 z m -1.710036,-4.685644 c 0.143149,0 0.693049,0.02256 0.956723,0.02256 0.474625,0 0.813572,-0.02256 1.710033,-0.02256 0.753314,0 1.3861,0.203412 1.838101,0.587539 0.549903,0.474625 0.836199,1.130038 0.836199,1.928528 0,1.137509 -0.519804,1.792922 -1.03961,2.169577 -0.519733,0.384198 -1.197771,0.610164 -2.161964,0.610164 -0.512266,0 -1.393641,-0.01508 -2.124398,-0.02263 h -0.0075 c -0.03764,-0.06773 0.06026,-0.331404 0.120525,-0.338947 0.19587,-0.02263 0.248589,-0.03017 0.346561,-0.06781 0.15816,-0.06026 0.188327,-0.143149 0.210949,-0.421834 0.02256,-0.519806 0.015,-1.145052 0.015,-1.853184 0,-0.504723 0.0075,-1.491611 -0.0075,-1.808006 -0.02256,-0.263601 -0.135538,-0.331405 -0.361573,-0.376656 -0.112983,-0.02256 -0.263674,-0.05272 -0.474555,-0.07527 -0.03017,-0.0528 0.105443,-0.286298 0.143079,-0.331478 v 0 z"
     id="path4-5" />
  <path
     inkscape:connector-curvature="0"
     style="fill:#442d22;stroke-width:0.08163249"
     d="m 20.958933,53.108484 c -0.188329,-0.02263 -0.323935,-0.05273 -0.48971,-0.128065 -0.02257,-0.01508 -0.06026,-0.09035 -0.06026,-0.120518 -0.01509,-0.263673 -0.01509,-1.016986 -0.01509,-1.521707 0,-0.406822 -0.06773,-0.760853 -0.241048,-1.009442 -0.203408,-0.2863 -0.497178,-0.452002 -0.873835,-0.452002 -0.331477,0 -0.775937,0.226035 -1.145053,0.54243 -0.0075,0.0074 -0.0678,0.06026 -0.06026,-0.02263 0,-0.08289 0.01509,-0.248589 0.02262,-0.361571 0.0075,-0.105508 -0.05272,-0.158233 -0.05272,-0.158233 -0.241122,0.12053 -0.919086,0.278756 -1.167678,0.301311 -0.180786,0.03771 -0.225963,0.210952 -0.03764,0.271214 h 0.0075 c 0.203341,0.06026 0.338947,0.128067 0.444389,0.19587 0.07535,0.06026 0.0678,0.143149 0.0678,0.210952 0.0075,0.564984 0.0075,1.431279 -0.01501,1.905904 -0.0075,0.188329 -0.06026,0.256062 -0.195867,0.286228 l 0.015,-0.0075 c -0.105442,0.02263 -0.188329,0.04517 -0.316394,0.06026 -0.04518,0.04517 -0.04518,0.286299 0,0.33902 0.08288,0 0.519803,-0.02263 0.881446,-0.02263 0.497181,0 0.753311,0.02263 0.881379,0.02263 0.05272,-0.06026 0.0678,-0.286298 0.03763,-0.33902 -0.14315,-0.0075 -0.248589,-0.02256 -0.346491,-0.05273 -0.135605,-0.03017 -0.173313,-0.0979 -0.180857,-0.256131 -0.01501,-0.399281 -0.01501,-1.242949 -0.01501,-1.815476 0,-0.158231 0.04518,-0.233578 0.09036,-0.278756 0.173246,-0.15062 0.452001,-0.256131 0.70059,-0.256131 0.241052,0 0.399283,0.07534 0.519807,0.173315 0.165702,0.135537 0.218423,0.331406 0.241048,0.474555 0.03763,0.323936 0.02262,0.964265 0.02262,1.521707 0,0.301311 -0.02262,0.376655 -0.135608,0.414293 -0.05272,0.02263 -0.188328,0.0528 -0.346559,0.06781 -0.05272,0.05273 -0.03764,0.286298 0,0.339018 0.218494,0 0.474624,-0.02263 0.85128,-0.02263 0.467015,0 0.768396,0.02263 0.88892,0.02263 0.03763,-0.04517 0.05272,-0.263673 0.02257,-0.323935 h 7e-5 z m 2.086689,-2.877639 c -0.39928,0 -0.647869,0.308852 -0.647869,0.790949 0,0.489638 0.218423,1.054624 0.836199,1.054624 0.105439,0 0.30131,-0.04517 0.391667,-0.150622 0.14315,-0.135608 0.241119,-0.406822 0.241119,-0.69305 0,-0.625245 -0.308921,-1.001901 -0.821116,-1.001901 z m -0.05279,3.32964 c -0.15062,0 -0.256132,0.04517 -0.323865,0.08289 -0.316465,0.203339 -0.459545,0.399208 -0.459545,0.632786 0,0.218425 0.08282,0.391668 0.263674,0.542359 0.218423,0.188328 0.519736,0.278756 0.903931,0.278756 0.768398,0 1.107413,-0.414364 1.107413,-0.821115 0,-0.286298 -0.143147,-0.474626 -0.436916,-0.580066 -0.210953,-0.09042 -0.59515,-0.135609 -1.054692,-0.13561 z m 0.05279,1.958626 c -0.459542,0 -0.791019,-0.09797 -1.077247,-0.316394 -0.278756,-0.210952 -0.399279,-0.527347 -0.399279,-0.74577 0,-0.06026 0.01509,-0.226037 0.15069,-0.376656 0.08281,-0.09043 0.263603,-0.263675 0.693049,-0.557442 0.015,-0.0075 0.02256,-0.01508 0.02256,-0.03017 0,-0.01508 -0.01509,-0.03017 -0.0301,-0.03764 -0.354102,-0.135608 -0.459541,-0.354103 -0.489707,-0.474626 v -0.01508 c -0.0075,-0.04517 -0.02257,-0.09036 0.04524,-0.135609 0.05272,-0.03764 0.128065,-0.08282 0.210882,-0.135536 0.128065,-0.07534 0.263674,-0.158232 0.346561,-0.226035 0.01509,-0.01508 0.01509,-0.0301 0.01509,-0.04517 0,-0.01508 -0.01509,-0.03017 -0.03017,-0.03764 -0.527274,-0.173317 -0.790947,-0.565056 -0.790947,-1.152593 0,-0.384198 0.173245,-0.730758 0.482096,-0.949182 0.210953,-0.165774 0.738229,-0.369114 1.084788,-0.369114 h 0.02262 c 0.354031,0.0074 0.549902,0.08282 0.828587,0.180787 0.15069,0.05272 0.293837,0.07528 0.489707,0.07528 0.29377,0 0.421835,-0.09036 0.527278,-0.195798 0.0075,0.01501 0.02262,0.05273 0.03016,0.150619 0.0075,0.09797 -0.02262,0.241048 -0.09797,0.346559 -0.06026,0.08282 -0.1958,0.14315 -0.331408,0.14315 h -0.03771 c -0.135609,-0.01508 -0.195871,-0.03017 -0.195871,-0.03017 l -0.0301,0.01508 c -0.0075,0.01508 0,0.0301 0.0075,0.05273 l 0.0076,0.01508 c 0.01501,0.06781 0.04518,0.271144 0.04518,0.323935 0,0.617704 -0.248592,0.888849 -0.512262,1.092259 -0.256133,0.188329 -0.549902,0.308852 -0.881379,0.339018 -0.0075,0 -0.03763,0 -0.105439,0.0075 -0.03771,0 -0.09043,0.0075 -0.09797,0.0075 h -0.0076 c -0.06026,0.01501 -0.210883,0.09035 -0.210883,0.218423 0,0.112982 0.0678,0.24859 0.391669,0.271214 0.06781,0.0075 0.135609,0.0075 0.210952,0.01508 0.429379,0.0301 0.964264,0.06781 1.212856,0.15062 0.34649,0.128067 0.564984,0.436918 0.564984,0.806103 0,0.557442 -0.39928,1.077246 -1.062163,1.401111 -0.323935,0.14315 -0.647872,0.218495 -1.001902,0.218495 v 0 z m 4.293905,-5.250629 c -0.158232,0 -0.301382,0.03764 -0.406821,0.112983 -0.293769,0.180786 -0.44446,0.54243 -0.44446,1.069705 0,0.98689 0.497181,1.679939 1.205312,1.679939 0.210952,0 0.376657,-0.06026 0.519806,-0.180787 0.218423,-0.180855 0.331477,-0.542429 0.331477,-1.04715 0,-0.979277 -0.489711,-1.63469 -1.205314,-1.63469 z m 0.135608,3.2242 c -1.280658,0 -1.740202,-0.94164 -1.740202,-1.823017 0,-0.617705 0.248592,-1.09233 0.74577,-1.431349 0.354102,-0.218423 0.775939,-0.338948 1.152593,-0.338948 0.979277,0 1.664856,0.700592 1.664856,1.710034 0,0.685509 -0.271215,1.227867 -0.791021,1.559345 -0.248589,0.165704 -0.677965,0.323935 -1.032066,0.323935 z m -13.424144,-3.2242 c -0.158232,0 -0.30131,0.03764 -0.406823,0.112983 -0.29377,0.180786 -0.44446,0.54243 -0.44446,1.069705 0,0.98689 0.497181,1.679939 1.205312,1.679939 0.210955,0 0.376656,-0.06026 0.519806,-0.180787 0.218426,-0.180855 0.331477,-0.542429 0.331477,-1.04715 0,-0.979277 -0.482168,-1.63469 -1.205312,-1.63469 z m 0.135609,3.2242 c -1.280661,0 -1.740206,-0.94164 -1.740206,-1.823017 0,-0.617705 0.248592,-1.09233 0.745773,-1.431349 0.354099,-0.218423 0.775937,-0.338948 1.152593,-0.338948 0.979346,0 1.664853,0.700592 1.664853,1.710034 0,0.685509 -0.271211,1.227867 -0.791018,1.559345 -0.241047,0.165704 -0.670426,0.323935 -1.031995,0.323935 z m -8.6104361,-0.07534 c -0.015084,-0.02256 -0.030168,-0.09035 -0.022622,-0.173244 0,-0.06026 0.015084,-0.09797 0.022622,-0.112982 0.1581601,-0.02263 0.2410485,-0.04525 0.3314062,-0.06781 0.1506908,-0.03771 0.210952,-0.120518 0.2184932,-0.308851 0.022622,-0.452002 0.022622,-1.310826 0.015084,-1.905905 v -0.01508 c 0,-0.06781 0,-0.15069 -0.08289,-0.210952 -0.1205297,-0.07528 -0.2636713,-0.143079 -0.4520012,-0.195869 -0.067809,-0.02256 -0.112982,-0.06026 -0.1054344,-0.105448 0,-0.04517 0.045172,-0.0979 0.1431503,-0.112982 0.2485861,-0.02263 0.8963873,-0.180785 1.1525203,-0.293769 0.015084,0.01501 0.037713,0.06026 0.037713,0.12053 l -0.00754,0.08282 c -0.00755,0.08289 -0.015091,0.180857 -0.015091,0.278756 0,0.0301 0.030168,0.05272 0.060256,0.05272 0.015084,0 0.030168,-0.0075 0.045251,-0.01508 0.4820956,-0.376656 0.919013,-0.512262 1.1449784,-0.512262 0.369184,0 0.655412,0.173315 0.8739066,0.534887 0.015012,0.02263 0.030096,0.0301 0.052725,0.0301 0.015084,0 0.037641,-0.0074 0.045172,-0.02256 0.444457,-0.33902 0.88892,-0.54243 1.1826887,-0.54243 0.700587,0 1.114951,0.519804 1.114951,1.401182 0,0.248591 0,0.572525 -0.0076,0.866365 0,0.263602 -0.0076,0.504721 -0.0076,0.677967 0,0.03764 0.05272,0.158161 0.135609,0.180785 0.105434,0.05272 0.248588,0.07534 0.436916,0.105446 h 0.0076 c 0.0151,0.05272 -0.01508,0.248591 -0.04518,0.286299 -0.04525,0 -0.113055,0 -0.188326,-0.0075 -0.14315,-0.0075 -0.346561,-0.01508 -0.572526,-0.01508 -0.467084,0 -0.708133,0.0075 -0.941708,0.02263 -0.015,-0.06026 -0.02256,-0.241049 0,-0.286299 0.135605,-0.02256 0.203408,-0.04517 0.286296,-0.06781 0.150691,-0.04517 0.188328,-0.112982 0.19587,-0.308852 0,-0.143078 0.03009,-1.363474 -0.01508,-1.657313 -0.04518,-0.301311 -0.271213,-0.655343 -0.7683947,-0.655343 -0.188326,0 -0.482096,0.07534 -0.768392,0.293769 -0.01501,0.01508 -0.0301,0.05273 -0.0301,0.07534 v 0.0075 c 0.0301,0.158163 0.0301,0.339019 0.0301,0.617704 v 0.48964 c 0,0.339018 -0.0076,0.65541 0,0.89646 0,0.165773 0.09796,0.203411 0.180854,0.233577 0.04517,0.0074 0.07528,0.01501 0.112982,0.02256 0.06781,0.01508 0.135608,0.03017 0.241048,0.05273 0.01508,0.03017 0.01508,0.128067 -0.0076,0.210953 -0.0076,0.04517 -0.02262,0.06781 -0.03009,0.07534 -0.256137,-0.0075 -0.519807,-0.01508 -0.904003,-0.01508 -0.112982,0 -0.3088517,0.0075 -0.4746262,0.0075 -0.1356091,0 -0.2636742,0.0075 -0.3389474,0.0075 -0.00755,-0.01508 -0.022622,-0.06781 -0.022622,-0.150691 0,-0.06781 0.015084,-0.120517 0.030167,-0.135607 0.037641,-0.0075 0.06773,-0.01501 0.1054473,-0.01501 0.090351,-0.01508 0.1657021,-0.03017 0.2410485,-0.04525 0.1280651,-0.03764 0.1732418,-0.105446 0.1807859,-0.271145 0.022622,-0.376656 0.045172,-1.453902 -0.00755,-1.725117 -0.090364,-0.436919 -0.3389467,-0.655412 -0.7382272,-0.655412 -0.2335094,0 -0.5273469,0.112982 -0.7683976,0.293839 -0.037641,0.0301 -0.067809,0.105447 -0.067809,0.173245 v 0.44446 c 0,0.542359 0,1.220396 0.00755,1.514165 0.00755,0.09035 0.037641,0.195869 0.210952,0.233507 0.037641,0.0075 0.097899,0.02263 0.1732461,0.03017 l 0.1356044,0.02256 c 0.015084,0.04525 0.00755,0.226037 -0.022615,0.286299 -0.075342,0 -0.165702,-0.0075 -0.2712161,-0.0075 -0.1581601,-0.0075 -0.3615695,-0.01508 -0.5875349,-0.01508 -0.2636742,0 -0.452002,0.0075 -0.6026927,0.01508 -0.1053576,-0.01508 -0.1882373,-0.01508 -0.2785972,-0.01508 v 0 z"
     id="path6-0" />
</svg>
