<svg width="546" height="644" viewBox="0 0 546 644" fill="none" xmlns="http://www.w3.org/2000/svg">
<path d="M267.226 10.8113C266.716 22.6803 264.678 30.6441 260.263 38.4547C256.187 45.7293 252.451 53.9994 251.432 58.1344C250.158 63.1883 250.328 76.2826 251.686 80.4176C253.639 86.0841 256.611 90.602 261.027 94.4308C265.018 97.8 268.33 99.0252 268.33 96.9577C268.33 96.4217 267.565 94.0479 266.631 91.5975C264.084 85.1652 264.339 77.8906 267.48 68.5485C268.839 64.4135 270.368 60.5848 270.707 60.1253C271.132 59.6659 272.151 57.2155 273 54.6885C273.849 52.1616 274.698 49.7878 274.953 49.4049C275.208 49.022 276.312 51.0895 277.415 53.9228C278.604 56.756 280.218 59.819 281.152 60.6614C282.001 61.5802 282.765 62.4991 282.765 62.8054C282.765 63.1883 283.699 64.6432 284.718 66.0982C285.822 67.5531 287.605 70.9224 288.624 73.6025C289.728 76.206 290.917 79.0393 291.341 79.7284C292.53 81.796 292.275 89.1471 290.832 91.5209C289.219 94.3542 289.219 97.1875 290.747 97.1875C293.21 97.1875 294.653 96.192 298.219 91.9804C300.257 89.53 302.126 87.4625 302.38 87.2327C302.72 87.003 303.654 85.0887 304.503 83.0211C306.626 77.7375 306.626 62.1163 304.503 55.0714C302.89 49.4049 295.842 36.0043 293.889 34.626C293.125 34.09 291.851 33.6305 291.087 33.6305C289.728 33.6305 289.558 34.3963 289.558 38.9142C289.558 49.2517 286.586 45.423 285.312 33.4008C284.293 24.365 282.935 17.5498 281.831 16.3246C281.406 15.8652 281.321 15.2526 281.661 15.0229C281.916 14.7166 281.831 14.4869 281.321 14.4869C280.897 14.4869 279.963 13.1085 279.368 11.4239C278.774 9.73923 277.755 7.97801 277.076 7.51857C276.481 7.05912 275.972 6.29337 275.972 5.83392C275.972 4.30243 271.471 0.703423 269.603 0.703423C267.82 0.703423 267.735 1.0863 267.226 10.8113Z" fill="#000066"/>
<path d="M184.859 48.4098C181.547 50.7836 180.783 64.4138 183.5 73.8325C184.434 77.2018 185.453 80.7242 185.708 81.6431C185.963 82.6386 186.472 83.4044 186.897 83.4044C187.321 83.4044 187.576 83.6341 187.491 83.9404C187.406 84.3233 187.831 85.5484 188.425 86.7736C189.954 90.1429 190.633 95.6563 189.529 95.6563C188.34 95.6563 185.878 92.3636 183.84 88.152C182.991 86.3908 182.057 84.9359 181.717 84.9359C178.915 84.9359 177.726 101.399 179.934 110.205C181.462 116.485 185.283 127.052 185.963 127.052C186.302 127.052 188.001 129.119 189.699 131.646C191.482 134.173 193.095 136.241 193.435 136.241C193.775 136.241 195.473 137.389 197.256 138.844C199.039 140.223 202.011 141.831 203.88 142.367C205.663 142.903 207.191 143.669 207.191 144.051C207.191 144.358 208.38 144.664 209.739 144.664C213.135 144.664 213.05 142.979 209.484 138.998C203.37 132.182 201.417 124.219 203.03 112.656C203.54 108.674 203.795 102.854 203.54 99.7148L203.03 94.0482L208.295 98.8724C227.061 116.255 231.816 123.147 231.816 132.872C231.816 139.304 235.298 138.844 237.845 132.029C238.525 130.345 239.374 128.737 239.798 128.43C240.902 127.741 240.902 114.57 239.798 112.426C239.204 111.431 238.1 108.827 237.336 106.76C236.487 104.616 235.128 102.012 234.279 100.863C233.345 99.7913 232.666 98.6427 232.666 98.3364C232.666 97.3409 218.57 84.1701 217.466 84.1701C216.702 84.1701 204.219 73.2199 201.672 70.3867C196.917 64.7967 192.756 58.6708 190.548 53.77C187.916 47.8737 186.897 46.9548 184.859 48.4098Z" fill="#000066"/>
<path d="M356.641 51.7024C355.706 53.6168 354.942 55.3015 354.942 55.4546C354.942 55.6078 353.923 57.2158 352.65 59.0536C351.291 60.8914 349.932 62.8823 349.423 63.5715C344.837 70.1569 334.648 80.1882 326.92 85.7016C321.231 89.76 317.58 93.1293 314.353 97.4941C312.655 99.6382 311.126 101.553 310.787 101.782C309.343 102.778 305.692 112.656 305.182 117.097C304.163 126.439 307.9 137.772 311.975 137.772C313.844 137.772 314.013 137.466 314.353 131.723C314.948 121.921 317.58 118.246 337.11 99.485L341.78 94.9671L341.865 106.453C341.95 113.192 342.375 118.246 342.884 118.858C343.479 119.471 343.479 120.237 343.054 120.926C342.545 121.539 342.205 123.376 342.205 124.984C342.205 128.966 339.403 135.705 336.346 139.227C334.902 140.835 333.714 142.979 333.714 143.898C333.714 145.353 334.053 145.506 336.091 145.123C340.337 144.205 348.149 139.993 351.376 136.93C353.074 135.245 355.112 133.254 355.876 132.565C357.575 130.957 361.226 123.989 362.669 119.548C363.179 117.786 363.943 116.331 364.283 116.331C366.491 116.331 368.019 91.4447 366.066 88.0754C364.283 85.2421 362.245 86.0845 360.122 90.6024C359.103 92.8996 357.659 95.1968 356.98 95.7329C354.857 97.3409 355.537 92.4401 358.763 83.6341C362.669 72.9902 363.773 66.8642 363.179 59.7428C362.754 53.6934 360.801 48.18 359.188 48.18C358.678 48.18 357.49 49.7881 356.641 51.7024Z" fill="#000066"/>
<path d="M56.8926 97.8771C56.8926 103.773 65.0444 114.8 74.3 121.309C76.0832 122.534 78.2061 124.142 78.8854 124.755C79.6497 125.367 81.4329 126.593 82.9613 127.435C85.5087 128.89 91.198 134.633 90.6036 135.169C90.0941 135.628 79.8195 130.728 79.8195 130.038C79.8195 129.656 79.2251 129.349 78.5458 129.349C77.7815 129.349 77.272 130.115 77.272 131.34C77.272 133.637 80.5837 140.835 81.6027 140.835C82.0273 140.835 82.8764 141.831 83.6406 143.056C85.4238 146.196 97.3119 156.993 101.473 159.213C103.341 160.209 105.039 161.281 105.294 161.587C106.143 162.583 116.842 166.794 120.578 167.56C124.824 168.479 134.335 168.555 137.561 167.713C138.835 167.407 139.769 166.564 139.939 165.569C140.194 164.191 139.599 163.884 136.712 163.425C134.844 163.119 132.806 162.506 132.212 161.97C131.702 161.511 130.259 160.745 129.07 160.285C123.381 157.988 116.587 150.254 109.964 138.691C108.266 135.705 106.483 133.178 106.143 133.178C105.803 133.178 104.699 131.953 103.68 130.498C102.746 129.043 102.152 127.818 102.407 127.818C103.765 127.818 110.898 129.656 111.238 130.115C111.493 130.421 115.399 131.417 119.984 132.336C124.484 133.255 128.221 134.327 128.221 134.709C128.221 135.016 129.664 135.552 131.363 135.858C134.419 136.318 139.26 138.232 140.109 139.227C140.363 139.534 141.637 140.376 142.996 141.142C145.713 142.673 149.364 146.272 150.723 148.799C151.233 149.718 152.336 150.484 153.186 150.637C154.629 150.943 154.714 150.484 154.374 146.042C153.95 139.457 150.553 133.408 144.354 127.741C141.552 125.214 139.005 123.223 138.58 123.223C138.241 123.223 137.137 122.611 136.203 121.845C135.354 121.156 132.891 119.854 130.768 119.012C128.645 118.169 126.777 117.25 126.522 117.021C125.928 116.178 116.587 114.187 111.068 113.575C108.351 113.269 106.143 112.733 106.143 112.426C106.143 112.043 104.869 111.737 103.426 111.737C99.8593 111.737 85.5937 108.904 84.9993 108.061C84.7445 107.755 82.1971 106.76 79.4798 105.994C76.6776 105.152 74.0453 104.08 73.5358 103.697C73.0263 103.237 71.1582 102.318 69.4599 101.629C67.6767 100.863 64.7047 99.2554 62.7517 97.9536C58.2512 95.0438 56.8926 95.0438 56.8926 97.8771Z" fill="#000066"/>
<path d="M484.437 97.3406C483.503 97.8001 482.059 98.8721 481.125 99.6379C480.191 100.327 478.238 101.323 476.625 101.859C475.096 102.318 473.823 102.931 473.823 103.237C473.823 103.62 472.039 104.462 469.832 105.228C467.539 105.994 464.227 107.219 462.359 107.908C460.491 108.674 455.906 109.822 452.17 110.588C448.433 111.277 444.612 112.12 443.678 112.502C442.744 112.885 439.857 113.421 437.309 113.651C431.281 114.34 420.836 116.408 420.327 117.02C420.072 117.327 418.543 118.016 416.93 118.628C411.58 120.466 404.702 124.907 399.777 129.579C397.145 132.182 395.192 134.556 395.362 134.862C395.616 135.168 395.447 135.475 395.022 135.475C393.833 135.475 390.776 142.826 390.097 147.114C389.672 150.177 389.842 150.866 391.116 151.326C392.135 151.632 392.899 151.326 393.494 150.33C394.003 149.565 396.551 146.961 399.183 144.587C404.278 140.069 411.071 136.47 416.336 135.705C418.034 135.475 419.477 135.015 419.477 134.632C419.477 134.326 423.214 133.254 427.799 132.335C432.3 131.416 436.206 130.421 436.46 130.115C436.715 129.808 438.074 129.349 439.432 129.043C440.876 128.736 442.659 128.353 443.423 128.124C444.782 127.741 444.697 127.894 443.253 129.502C438.159 135.015 435.356 138.768 432.384 144.281C428.733 150.943 421.685 158.524 417.694 160.055C416.336 160.515 415.232 161.204 415.232 161.51C415.232 162.123 412.005 163.195 407.42 164.114C405.806 164.42 405.042 165.109 405.042 166.028C405.042 169.168 418.713 169.933 428.393 167.406C430.262 166.947 431.96 166.334 432.215 166.028C432.469 165.798 434.677 164.726 437.14 163.807C439.517 162.889 441.555 161.893 441.555 161.587C441.555 161.28 442.744 160.438 444.272 159.672C447.329 157.988 457.859 148.722 461.255 144.664C466.86 137.849 469.662 130.88 466.69 130.88C465.331 130.88 459.302 133.867 458.453 134.939C458.114 135.322 457.095 135.475 455.991 135.322C454.123 135.092 454.207 135.015 456.925 132.412C458.538 130.88 461.17 128.889 462.784 127.817C464.397 126.822 466.18 125.597 466.775 125.137C467.369 124.754 469.832 122.84 472.379 120.926C480.786 114.57 486.984 106.223 487.918 100.021C488.513 96.1154 487.834 95.5794 484.437 97.3406Z" fill="#000066"/>
<path d="M180.359 159.29C179 160.974 177.471 162.812 176.877 163.348C176.283 163.961 175.009 166.564 173.99 169.244C172.546 173.073 171.952 176.825 171.527 186.78C171.103 193.748 170.593 200.18 170.254 201.099C169.489 203.243 168.131 203.397 168.131 201.329C168.131 200.487 167.876 199.798 167.536 199.798C167.112 199.798 166.857 197.96 166.857 195.816C166.857 192.293 166.602 191.757 165.074 191.528C162.951 191.221 160.658 194.361 158.366 200.64C157.517 202.937 156.582 205.081 156.243 205.541C154.969 206.996 153.526 216.261 153.526 223.153C153.441 229.585 154.884 238.774 156.158 239.616C156.413 239.846 157.771 241.99 159.045 244.364C161.423 248.729 165.668 252.787 169.574 254.395C172.886 255.697 173.396 254.242 171.527 249.341C169.489 244.211 169.405 238.468 171.103 232.418C172.546 227.594 176.283 219.937 178.066 218.329C178.66 217.793 179.17 216.95 179.17 216.491C179.17 216.031 180.019 213.198 180.953 210.212L182.821 204.775L184.349 208.91C185.284 211.207 186.387 213.351 186.897 213.658C187.406 213.887 187.831 214.347 187.746 214.576C187.746 214.883 188.68 216.95 189.784 219.248C195.983 231.959 197.681 241.607 194.879 248.805C192.671 254.395 193.605 255.467 198.445 252.94C201.163 251.485 204.219 247.504 207.786 240.765C209.994 236.553 210.163 235.481 210.163 227.364C210.079 218.865 209.994 218.329 206.767 211.667C204.984 207.838 202.521 203.397 201.332 201.712C200.144 200.027 198.785 198.113 198.275 197.424C195.388 193.212 192.586 187.699 190.548 182.109C189.275 178.586 187.916 175.294 187.491 174.758C187.067 174.298 186.303 170.699 185.793 166.717C184.349 154.465 184.265 154.389 180.359 159.29Z" fill="#000066"/>
<path d="M267.226 168.172C266.886 175.37 266.207 180.424 265.018 184.1C262.98 190.609 261.197 194.973 260.348 195.739C259.329 196.658 254.913 205.617 252.96 210.748C250.668 216.568 249.819 230.887 251.347 236.324C253.045 242.603 256.357 247.81 260.857 251.486C265.018 254.855 268.33 255.927 268.33 253.936C268.33 253.4 267.566 250.873 266.547 248.423C263.575 240.689 265.358 227.824 270.877 217.027C271.726 215.342 272.83 212.586 273.34 210.901C274.783 206.077 275.717 205.311 276.397 208.297C277.161 211.437 279.454 216.032 280.643 216.797C281.237 217.18 281.237 217.41 280.643 217.41C280.133 217.41 280.133 217.64 280.727 218.022C282.426 219.018 287.86 228.13 289.219 232.189C289.898 234.409 290.917 236.783 291.342 237.472C292.361 239.234 292.361 247.81 291.342 248.193C290.917 248.269 290.323 249.724 289.983 251.256C289.474 253.706 289.643 254.166 290.832 254.166C293.55 254.166 297.031 251.639 299.409 247.963C300.767 245.896 302.126 244.211 302.466 244.211C303.739 244.211 305.777 235.941 306.287 229.279C306.881 219.784 304.588 210.212 299.409 200.41C295.163 192.37 293.719 190.609 291.172 190.609C289.728 190.609 289.559 191.221 289.559 196.275C289.559 199.415 289.219 202.172 288.709 202.478C287.521 203.167 285.568 195.739 284.888 188.311C284.379 181.65 282.341 172.231 281.237 171.465C280.897 171.235 279.539 169.015 278.095 166.488C275.378 161.587 271.387 157.682 269.094 157.682C267.905 157.682 267.651 159.137 267.226 168.172Z" fill="#000066"/>
<path d="M360.037 161.281C360.037 168.019 355.707 185.248 354.008 185.248C353.584 185.248 353.329 185.478 353.414 185.784C353.669 187.086 344.753 202.401 342.97 203.626C340.167 205.541 336.261 217.257 335.667 225.45C334.903 236.783 337.96 245.513 344.838 251.715C350.527 256.693 352.565 255.85 350.272 249.494C348.234 244.058 348.914 233.873 351.631 228.13C352.735 225.833 353.923 223.765 354.263 223.689C354.688 223.536 354.773 223.076 354.433 222.693C354.178 222.311 354.433 222.004 354.858 222.004C355.367 222.004 355.792 221.621 355.792 221.085C355.792 220.549 357.15 217.103 358.849 213.428C361.736 207.302 363.434 205.541 363.434 208.91C363.434 209.599 363.774 210.518 364.113 210.977C364.538 211.36 365.557 213.351 366.321 215.495C367.17 217.563 368.953 221.468 370.312 224.072C371.586 226.675 372.944 229.738 373.284 230.963C373.624 232.112 374.303 233.567 374.812 234.18C376.001 235.558 376.086 247.886 374.812 248.652C374.388 248.958 373.454 250.337 372.775 251.715C371.84 253.859 371.84 254.395 372.859 255.391C374.303 256.693 376.086 255.697 381.521 250.72C386.616 246.049 388.653 242.833 390.182 236.783C392.22 229.202 391.541 213.428 388.993 205.158C387.125 199.262 381.775 191.068 380.077 191.604C379.568 191.757 378.888 194.131 378.634 196.811C378.124 202.861 377.36 204.315 375.747 202.325C375.152 201.559 374.812 200.716 375.067 200.334C375.237 200.027 375.067 199.338 374.643 198.802C374.133 198.266 373.624 192.676 373.454 186.397C373.114 176.519 372.69 174.145 370.821 169.244C368.359 162.965 364.623 158.218 361.821 157.835C360.207 157.605 360.037 157.911 360.037 161.281Z" fill="#000066"/>
<path d="M29.7202 194.591C29.7202 199.338 38.7211 212.739 44.4953 216.568C45.4294 217.18 46.788 218.252 47.5523 218.865C48.2316 219.554 50.0148 220.779 51.3734 221.545C54.77 223.536 58.3364 226.522 60.4593 229.202L62.3274 231.423L59.5252 230.964C57.9967 230.657 55.6191 229.585 54.1756 228.513C50.8639 225.986 48.4014 225.986 48.4014 228.513C48.4014 230.581 50.0148 234.333 51.3734 235.175C51.8829 235.558 51.8829 235.788 51.3734 235.788C50.8639 235.788 50.8639 236.018 51.4583 236.4C51.9678 236.707 53.5812 238.621 55.1946 240.689C59.1006 245.896 69.7998 255.391 73.8757 257.229C75.7439 258.071 77.2723 259.067 77.2723 259.449C77.2723 260.139 87.462 263.355 89.5849 263.355C90.2642 263.355 90.8586 263.661 90.8586 264.12C90.8586 264.58 93.6608 264.886 97.6518 264.886C101.388 264.886 104.445 264.58 104.445 264.197C104.445 263.814 105.464 263.355 106.738 263.202C108.096 263.048 109.2 262.436 109.37 261.747C109.625 260.521 108.096 259.679 101.643 257.612C96.6328 256.004 89.2453 249.571 86.4431 244.364C85.3392 242.373 84.1504 240.535 83.6409 240.229C83.0465 239.846 83.0465 239.617 83.6409 239.617C84.2353 239.617 84.2353 239.387 83.6409 239.004C83.2163 238.698 82.0275 237.09 81.0935 235.405C79.0555 231.576 76.6779 228.36 73.9606 225.603C72.1774 223.919 72.0925 223.536 73.2813 223.536C74.0456 223.536 74.7249 223.842 74.7249 224.149C74.7249 224.531 78.1215 225.374 82.3672 226.139C86.528 226.905 90.8586 227.977 91.9625 228.513C93.0664 228.973 96.7177 230.045 100.029 230.811C103.426 231.5 106.143 232.342 106.143 232.648C106.143 232.955 107.417 233.567 108.945 234.103C112.257 235.175 117.437 239.54 120.833 244.211C122.786 246.815 123.466 247.274 124.4 246.508C125.843 245.436 126.098 239.617 124.909 237.473C124.485 236.783 122.956 233.95 121.598 231.193C120.239 228.437 118.201 225.374 117.012 224.302C112.767 220.473 109.879 218.405 106.992 217.027C105.379 216.261 103.851 215.419 103.596 215.113C103.086 214.347 93.1513 211.284 91.2832 211.284C90.6039 211.284 90.0095 210.978 90.0095 210.595C90.0095 210.212 87.6319 209.676 84.7448 209.37C76.0835 208.604 63.2614 206.536 62.8369 206C62.5821 205.694 60.5442 205.005 58.1666 204.469C54.0907 203.55 41.6082 198.573 40.7591 197.501C40.5044 197.271 38.7211 196.199 36.7681 195.203C34.7302 194.208 33.1168 193.136 33.1168 192.753C33.1168 192.447 32.3526 192.14 31.4185 192.14C30.0599 192.14 29.7202 192.676 29.7202 194.591Z" fill="#000066"/>
<path d="M512.883 192.906C512.883 193.365 511.185 194.437 509.062 195.356C506.939 196.275 505.241 197.271 505.241 197.653C505.241 198.343 494.202 203.09 489.532 204.392C487.664 204.851 485.031 205.77 483.588 206.306C481.04 207.302 464.992 209.752 460.746 209.752C459.557 209.752 458.538 210.059 458.538 210.518C458.538 210.901 457.774 211.284 456.925 211.284C454.887 211.284 443.848 214.347 443.253 215.036C442.999 215.342 441.131 216.338 439.008 217.333C434.168 219.554 425.336 227.9 422.789 232.571C421.6 234.869 420.751 238.238 420.496 241.684C420.157 246.967 420.157 247.274 421.94 247.274C422.874 247.274 423.723 246.891 423.723 246.508C423.723 245.436 427.12 241.071 428.818 239.923C429.497 239.387 431.111 238.161 432.299 237.166C433.488 236.17 435.781 234.792 437.394 234.256C439.008 233.644 440.451 232.954 440.706 232.725C440.961 232.418 444.018 231.576 447.499 230.81C450.981 230.045 454.292 229.126 454.802 228.819C455.311 228.436 459.302 227.441 463.718 226.522C468.133 225.603 472.294 224.531 472.973 224.072C473.653 223.612 473.228 224.225 472.039 225.45C468.982 228.666 464.227 235.558 462.359 239.616C458.368 248.04 450.131 256.463 444.272 257.994C442.319 258.53 440.706 259.219 440.706 259.526C440.706 259.832 439.602 260.291 438.159 260.521C435.611 261.057 434.507 263.354 436.8 263.354C437.479 263.354 438.159 263.814 438.328 264.273C438.838 265.499 455.736 265.652 456.67 264.503C457.01 264.044 459.472 263.125 462.104 262.359C464.822 261.593 467.454 260.521 468.133 259.985C468.728 259.449 470.511 258.377 472.124 257.611C473.653 256.922 478.493 253.017 482.824 249.112C488.598 243.828 491.485 240.382 493.693 236.4C498.108 228.513 497.599 224.531 492.589 228.36C489.871 230.427 485.031 232.418 484.352 231.729C483.503 230.963 487.069 227.135 491.23 224.301C499.637 218.558 507.788 211.743 507.788 210.441C507.788 210.212 508.892 208.68 510.336 207.072C513.393 203.55 515.855 196.888 515.091 194.131C514.582 192.217 512.883 191.298 512.883 192.906Z" fill="#000066"/>
<path d="M153.95 267.337C151.912 267.719 150.299 268.332 150.299 268.638C150.299 268.945 148.855 269.864 147.072 270.553C141.298 272.927 136.712 280.048 136.712 286.633C136.712 292.376 142.656 312.209 145.289 315.119C145.713 315.579 147.581 318.642 149.534 322.011C151.403 325.304 154.375 329.592 156.158 331.506C157.856 333.421 159.894 335.794 160.573 336.866C161.847 338.628 171.358 347.281 178.32 352.947C179.934 354.325 182.311 355.857 183.67 356.469C184.944 357.082 185.963 357.848 185.963 358.231C185.963 358.614 187.067 359.303 188.425 359.839C189.784 360.298 191.567 361.294 192.416 361.983C193.35 362.749 195.643 363.974 197.681 364.74C199.634 365.582 201.247 366.501 201.247 366.807C201.247 367.113 202.691 367.803 204.474 368.262C206.172 368.798 208.805 369.793 210.248 370.559C211.692 371.248 214.834 372.474 217.211 373.163L221.627 374.541V502.114C221.627 623.945 221.712 629.917 223.24 632.827C228.93 644.16 249.734 646.84 260.263 637.575C262.471 635.584 264.254 633.134 264.848 631.296C265.528 629.075 265.782 582.365 265.782 465.818C265.782 323.849 265.613 303.02 264.509 300.647C262.98 297.201 260.433 294.827 255.593 291.994C252.026 289.926 251.177 289.773 243.705 289.773C236.062 289.773 235.383 289.926 230.713 292.453C226.722 294.597 225.448 295.822 223.75 299.115C221.712 302.867 221.627 303.71 221.627 318.029C221.627 326.758 221.287 333.038 220.863 333.038C220.438 333.038 219.504 332.578 218.91 332.042C218.315 331.506 216.702 330.434 215.258 329.668C208.041 325.533 191.907 310.678 191.907 307.998C191.907 307.768 190.803 306.16 189.444 304.322C185.963 299.651 182.991 292.53 180.613 283.111C178.745 275.453 178.32 274.611 174.839 271.472C169.489 266.724 163.206 265.422 153.95 267.337Z" fill="#000066"/>
<path d="M377.275 267.643C376.171 267.872 375.322 268.332 375.322 268.562C375.322 268.868 374.048 269.71 372.52 270.476C369.548 271.931 366.661 276.755 365.557 282.039C365.302 283.647 364.708 285.561 364.283 286.25C363.858 286.94 362.839 289.543 362.075 292.07C360.122 298.196 356.98 304.245 353.244 308.916C351.631 310.984 349.338 313.97 348.149 315.578C346.96 317.11 343.734 320.173 341.016 322.317C338.214 324.538 335.412 326.758 334.733 327.371C334.138 327.984 332.355 329.056 330.912 329.745C329.383 330.434 328.025 331.2 327.77 331.506C327.515 331.812 326.581 332.425 325.647 332.884C323.949 333.65 323.949 333.42 324.203 319.024C324.458 305.471 324.288 304.092 322.675 301.259C319.958 296.511 317.58 294.291 312.57 292.147C306.032 289.313 297.71 289.313 291.172 292.147C286.756 294.061 282.001 298.043 281.916 299.881C281.916 300.34 281.407 300.876 280.897 301.029C279.284 301.565 279.284 632.521 280.897 632.98C281.407 633.21 281.916 633.746 281.916 634.205C282.001 635.89 287.096 640.255 290.662 641.633C295.927 643.701 301.361 644.237 307.051 643.165C315.457 641.633 319.448 638.877 322.845 632.521C324.203 629.917 324.288 621.111 324.373 502.191V374.618L329.893 373.239C332.95 372.55 335.412 371.708 335.412 371.401C335.412 371.095 337.62 370.023 340.337 369.028C342.97 368.032 345.347 366.96 345.602 366.73C345.857 366.424 347.215 365.582 348.744 364.893C351.631 363.591 359.358 359.073 360.037 358.307C360.292 358.077 361.821 357.005 363.434 356.01C368.444 352.87 375.746 346.668 382.625 339.546C387.974 334.033 396.296 323.159 395.871 322.087C395.786 321.781 396.041 321.551 396.466 321.551C397.315 321.551 401.73 312.439 403.853 306.39C404.617 304.169 405.551 302.254 405.891 302.025C406.231 301.795 407.25 298.426 408.099 294.444C409.373 288.241 409.458 286.557 408.523 282.958C407.929 280.584 407.25 278.67 406.91 278.67C406.57 278.67 405.212 277.215 403.768 275.53C402.41 273.845 399.183 271.395 396.551 270.093C392.729 268.179 390.776 267.719 385.512 267.566C382.03 267.413 378.294 267.49 377.275 267.643Z" fill="#000066"/>
<path d="M78.5459 301.336C71.8376 302.101 61.9876 304.169 61.9876 304.782C61.9876 305.164 61.4781 305.471 60.9686 305.471C60.3742 305.471 56.4681 307.079 52.3073 308.917C48.0616 310.831 44.1555 312.362 43.5611 312.362C42.9667 312.362 42.4572 312.669 42.4572 313.052C42.4572 313.358 39.4852 314.43 35.9188 315.349C32.2675 316.268 28.5313 317.416 27.5972 317.799C24.8799 318.948 17.4075 320.02 8.32162 320.556C1.01897 320.939 0 321.169 0 322.394C0 323.159 0.76423 324.155 1.61337 324.614C2.54743 324.997 3.82115 325.84 4.41555 326.376C5.00995 326.988 8.2367 328.213 11.4635 329.209C14.7751 330.128 17.917 331.276 18.4264 331.659C19.0208 332.119 26.4933 332.731 35.0697 333.038C43.5611 333.42 51.628 333.956 52.9017 334.186C57.6569 335.258 54.5151 336.866 47.3823 336.866C39.4003 336.866 38.4663 339.01 45.2594 341.844C47.637 342.916 50.0995 343.758 50.6939 343.758C51.2034 343.758 51.7978 344.064 51.9677 344.524C52.1375 344.907 56.9776 345.979 62.8367 346.898C71.2432 348.199 75.5739 348.429 83.6407 348.123C93.1512 347.74 103.426 345.979 104.445 344.6C104.7 344.217 106.228 343.375 107.841 342.609C111.153 341.078 117.097 335.488 117.182 333.88C117.182 333.114 116.418 332.961 114.04 333.42C112.257 333.65 107.162 334.11 102.577 334.339C93.7456 334.722 86.9524 333.803 82.2821 331.583C80.6687 330.817 77.2722 329.592 74.7247 328.826C72.1773 328.06 69.8846 327.218 69.6299 326.835C69.3751 326.529 66.488 325.763 63.2613 325.15C57.7418 324.078 57.4871 323.925 60.1194 323.466C61.563 323.159 62.8367 322.623 62.8367 322.317C62.8367 322.011 65.8087 321.015 69.46 320.02C73.0264 319.024 76.1683 318.029 76.423 317.723C77.0174 317.033 90.0093 313.894 92.3869 313.894C93.4059 313.894 94.2551 313.511 94.2551 313.128C94.2551 312.669 96.5477 312.362 99.3499 312.362C102.152 312.362 104.445 312.669 104.445 313.052C104.445 313.358 105.888 313.894 107.672 314.2C109.37 314.43 112.087 314.889 113.531 315.119C117.352 315.808 118.201 313.741 115.144 311.52C113.955 310.678 112.427 309.529 111.832 308.993C111.238 308.381 109.37 307.385 107.841 306.619C106.228 305.854 104.7 305.011 104.445 304.705C103.171 302.867 85.0843 300.57 78.5459 301.336Z" fill="#000066"/>
<path d="M448.773 302.944C445.546 303.556 442.659 304.322 442.404 304.705C442.149 305.011 440.536 305.853 438.838 306.466C437.054 307.155 434.082 309.07 432.214 310.754C426.865 315.502 427.799 316.804 435.271 315.042C442.149 313.434 450.98 313.587 459.472 315.502C463.378 316.421 466.774 317.416 467.029 317.722C467.284 318.029 469.746 318.871 472.549 319.637C475.351 320.326 479.257 321.551 481.21 322.393C483.163 323.159 485.456 323.848 486.305 323.848C489.192 323.848 485.625 325.227 481.295 325.763C479.087 326.069 477.219 326.529 477.219 326.835C477.219 327.141 475.096 327.983 472.464 328.749C469.831 329.515 466.01 330.893 463.887 331.965C461.765 332.961 458.198 334.033 455.905 334.263C453.613 334.569 451.49 335.105 451.235 335.411C450.726 336.254 439.517 336.33 438.668 335.564C437.819 334.799 430.261 333.114 429.497 333.573C427.204 334.799 431.535 340.312 436.715 342.686C438.158 343.375 439.857 344.37 440.451 344.906C441.64 345.978 451.999 348.352 455.481 348.352C456.67 348.352 457.858 348.659 458.113 349.118C458.368 349.501 461.425 349.884 464.906 349.884C468.388 349.884 471.445 349.501 471.699 349.118C471.954 348.659 473.398 348.352 474.841 348.352C484.776 348.352 504.392 342.303 504.392 339.24C504.392 338.015 503.542 337.785 498.023 337.479C494.457 337.249 491.4 336.866 491.06 336.56C489.362 335.028 493.607 334.339 507.958 333.727C523.327 333.114 526.13 332.808 529.441 331.429C530.375 331.046 532.838 330.204 534.876 329.592C540.056 327.983 545.915 324.461 546 323.006C546 321.245 544.216 320.785 537.084 320.785C530.545 320.785 516.195 318.794 515.43 317.799C515.176 317.493 513.138 316.804 510.76 316.268C508.467 315.808 501.929 313.358 496.325 310.831C490.72 308.38 485.116 306.083 483.842 305.853C482.484 305.547 481.465 305.011 481.465 304.705C481.465 303.709 467.029 301.642 460.661 301.718C457.434 301.718 452.084 302.254 448.773 302.944Z" fill="#000066"/>
<path d="M116.757 373.239C116.333 373.316 113.7 373.852 111.068 374.388C108.351 374.924 106.143 375.613 106.143 375.919C106.143 376.226 104.02 377.298 101.473 378.217C98.9252 379.136 96.8023 380.208 96.8023 380.591C96.8023 380.973 95.6984 381.739 94.3398 382.428C92.9811 383.041 89.4147 385.874 86.4427 388.707C73.0262 401.725 65.1292 408.234 60.8835 410.072C59.1852 410.838 57.7416 411.756 57.7416 412.063C57.7416 412.446 56.1283 413.441 54.0903 414.207C52.1373 415.049 50.1843 415.968 49.7597 416.274C49.42 416.581 46.9575 417.576 44.3252 418.418C38.8057 420.18 37.532 422.247 41.3532 423.166C46.1084 424.391 66.318 423.779 72.6017 422.324C75.9133 421.558 78.7155 420.639 78.9703 420.256C79.225 419.873 82.1121 419.031 85.3388 418.265C88.6505 417.5 91.4527 416.657 91.5376 416.274C91.9622 415.432 95.7833 415.585 96.3777 416.504C96.6325 416.887 95.4437 417.882 93.6605 418.572C91.8773 419.337 90.2639 420.103 90.0091 420.333C89.7544 420.562 88.5656 421.175 87.2919 421.635C84.7444 422.63 84.4897 423.166 85.7634 424.927C86.3578 425.77 88.6505 425.999 97.3118 425.923C103.171 425.923 108.266 425.54 108.605 425.157C108.86 424.851 112.511 423.932 116.672 423.166C131.957 420.409 145.798 412.369 150.808 403.486C154.629 396.595 153.27 392.919 148.345 396.978C145.798 399.198 139.684 401.878 137.391 401.955C136.542 401.955 135.863 402.261 135.863 402.644C135.863 403.793 130.004 404.252 111.492 404.405L94.3398 404.635L97.142 402.338C98.6704 401.036 101.473 398.815 103.426 397.36C105.379 395.905 109.2 392.842 111.832 390.622C114.549 388.478 116.927 386.64 117.267 386.64C117.521 386.64 118.625 385.951 119.644 385.108C120.748 384.343 123.381 383.117 125.588 382.428C127.711 381.739 130.174 380.82 130.938 380.437C131.702 380.131 134.844 379.595 137.901 379.289C143.251 378.753 144.269 378.14 142.826 376.226C141.637 374.465 133.061 372.856 125.334 372.933C121.088 372.933 117.267 373.086 116.757 373.239Z" fill="#000066"/>
<path d="M415.232 373.316C408.438 374.311 404.193 375.383 404.193 375.996C404.193 376.379 403.598 376.685 402.919 376.685C402.24 376.685 401.645 377.374 401.645 378.217C401.645 379.595 402.24 379.748 406.316 379.748C408.863 379.748 410.986 380.054 410.986 380.514C410.986 380.897 411.92 381.28 413.109 381.28C415.741 381.28 424.572 384.266 424.572 385.108C424.572 385.491 425.252 385.951 426.101 386.18C426.95 386.487 428.988 387.712 430.601 389.014C432.215 390.315 435.187 392.613 437.14 394.144C439.177 395.676 441.725 397.666 442.744 398.509C443.763 399.351 446.31 401.419 448.348 403.027C450.471 404.635 451.405 405.783 450.471 405.477C449.537 405.171 441.64 404.941 432.894 404.941C417.185 405.018 408.269 404.175 407.759 402.72C407.589 402.261 406.91 401.955 406.231 401.955C404.363 401.955 398.843 399.275 397.06 397.437C395.277 395.599 391.456 395.216 391.456 396.901C391.456 398.892 394.088 404.635 395.277 405.247C395.956 405.554 396.55 406.243 396.55 406.779C396.635 409.153 409.373 418.188 414.128 419.261C415.232 419.567 416.081 420.026 416.081 420.333C416.081 421.022 428.478 424.161 431.111 424.161C432.13 424.161 433.064 424.544 433.233 425.004C433.403 425.54 437.649 425.999 444.952 426.229C461.085 426.765 465.076 425.004 456.16 421.328C453.953 420.409 451.405 419.107 450.471 418.495C448.858 417.346 448.858 417.346 451.66 417.27C454.972 417.27 464.652 419.49 465.416 420.486C465.926 421.251 478.493 424.161 481.21 424.161C482.229 424.161 483.163 424.468 483.163 424.927C483.163 425.387 486.39 425.693 491.23 425.693C495.646 425.693 499.297 425.387 499.297 425.004C499.297 424.621 500.825 424.161 502.694 423.855C506.09 423.396 507.109 422.017 505.071 420.562C504.477 420.103 501.929 419.184 499.467 418.418C497.004 417.729 494.542 416.734 493.947 416.198C493.438 415.738 491.655 414.819 490.126 414.283C488.598 413.671 487.069 412.828 486.73 412.369C486.39 411.833 484.777 410.761 483.163 409.918C478.068 407.238 472.549 402.491 460.661 390.928C456.925 387.252 452.424 383.577 450.726 382.658C448.943 381.739 447.499 380.743 447.499 380.437C447.499 380.131 445.291 379.135 442.659 378.14C439.942 377.221 437.564 376.149 437.309 375.919C436.036 374.464 420.072 372.55 415.232 373.316Z" fill="#000066"/>
</svg>
