<?xml version="1.0" encoding="UTF-8" standalone="no"?>
<!-- Generated by IcoMoon.io -->

<svg
   xmlns:dc="http://purl.org/dc/elements/1.1/"
   xmlns:cc="http://creativecommons.org/ns#"
   xmlns:rdf="http://www.w3.org/1999/02/22-rdf-syntax-ns#"
   xmlns:svg="http://www.w3.org/2000/svg"
   xmlns="http://www.w3.org/2000/svg"
   xmlns:sodipodi="http://sodipodi.sourceforge.net/DTD/sodipodi-0.dtd"
   xmlns:inkscape="http://www.inkscape.org/namespaces/inkscape"
   version="1.1"
   width="27"
   height="32"
   viewBox="0 0 27 32"
   id="svg4"
   sodipodi:docname="sublime.svg"
   inkscape:version="0.92.2 (5c3e80d, 2017-08-06)">
  <metadata
     id="metadata10">
    <rdf:RDF>
      <cc:Work
         rdf:about="">
        <dc:format>image/svg+xml</dc:format>
        <dc:type
           rdf:resource="http://purl.org/dc/dcmitype/StillImage" />
      </cc:Work>
    </rdf:RDF>
  </metadata>
  <defs
     id="defs8" />
  <sodipodi:namedview
     pagecolor="#ffffff"
     bordercolor="#666666"
     borderopacity="1"
     objecttolerance="10"
     gridtolerance="10"
     guidetolerance="10"
     inkscape:pageopacity="0"
     inkscape:pageshadow="2"
     inkscape:window-width="1366"
     inkscape:window-height="705"
     id="namedview6"
     showgrid="false"
     inkscape:zoom="7.375"
     inkscape:cx="13.5"
     inkscape:cy="16"
     inkscape:window-x="-8"
     inkscape:window-y="-8"
     inkscape:window-maximized="1"
     inkscape:current-layer="svg4" />
  <path
     fill="#444444"
     d="M2.944 16.286v10.539h21.079v-21.079h-21.079v10.539zM14.895 11.078c0.228 0.056 0.448 0.124 0.655 0.203 0.452 0.173 1.065 0.378 1.476 0.789 0.166 0.166 0.146 0.215-0.234 0.761-0.224 0.312-0.439 0.615-0.478 0.664-0.049 0.049-0.171-0.039-0.566-0.224-0.794-0.373-1.522-0.712-2.323-0.712-1.122 0-1.698 0.429-1.698 1.278 0 0.781 0.537 1.132 2.44 1.62 2.508 0.644 3.396 1.493 3.357 3.23-0.025 1.104-0.863 2.233-1.841 2.661-1.11 0.486-2.413 0.418-3.55 0.066-0.623-0.193-1.272-0.455-1.839-0.779-0.211-0.12-0.5-0.301-0.68-0.481-0.197-0.197-0.096-0.235 0.083-0.462 0.137-0.185 0.381-0.478 0.537-0.654l0.273-0.332 0.654 0.439c0.947 0.634 1.62 0.859 2.576 0.869 0.947 0.010 1.425-0.185 1.776-0.703 0.185-0.264 0.224-0.429 0.176-0.732-0.068-0.585-0.527-0.956-1.591-1.269-2.342-0.703-2.752-0.849-3.123-1.113-0.468-0.342-0.839-0.81-0.995-1.269-0.156-0.468-0.137-1.454 0.049-1.981 0.689-1.958 3.046-2.314 4.866-1.87z"
     id="path2" />
  <path
     style="opacity:0.89099995;fill:#f18260;fill-opacity:1;fill-rule:nonzero;stroke:none;stroke-width:0.18983051;stroke-linecap:round;stroke-linejoin:round;stroke-miterlimit:4;stroke-dasharray:none;stroke-dashoffset:0;stroke-opacity:0.99607843;paint-order:markers fill stroke"
     d="m 13.114248,10.783475 c -1.704253,-0.172622 -3.5475847,1.260298 -3.4062501,3.05429 -0.178445,1.195572 0.5315181,2.376133 1.6676381,2.782839 1.258628,0.638419 2.817027,0.717307 3.914195,1.637976 0.455623,0.834857 -0.488122,1.578572 -1.283634,1.51589 -1.280076,0.117828 -2.330991,-0.690621 -3.415254,-1.197298 -0.6285727,0.138438 -0.976247,0.895132 -1.3167502,1.364138 0.2826977,0.775545 1.3207182,1.05405 2.0352352,1.426381 1.314526,0.56731 2.88289,0.702934 4.249735,0.258209 1.932664,-0.657936 2.972794,-3.370538 1.526218,-4.970868 -1.272183,-1.359992 -3.34784,-1.309266 -4.863347,-2.231197 -0.632359,-0.62742 0.103697,-1.746529 0.934587,-1.546875 1.116882,-0.152296 2.121043,0.480551 3.11942,0.843572 0.487374,-0.284667 1.013144,-0.929524 1.053514,-1.551464 -0.539138,-0.975109 -1.844946,-1.212383 -2.866937,-1.342417 -0.447828,-0.04589 -0.898699,-0.04712 -1.34837,-0.04318 z"
     id="path817"
     inkscape:connector-curvature="0" />
</svg>
