<?xml version="1.0" encoding="UTF-8" standalone="no"?>
<svg
   xmlns:dc="http://purl.org/dc/elements/1.1/"
   xmlns:cc="http://creativecommons.org/ns#"
   xmlns:rdf="http://www.w3.org/1999/02/22-rdf-syntax-ns#"
   xmlns:svg="http://www.w3.org/2000/svg"
   xmlns="http://www.w3.org/2000/svg"
   xmlns:sodipodi="http://sodipodi.sourceforge.net/DTD/sodipodi-0.dtd"
   xmlns:inkscape="http://www.inkscape.org/namespaces/inkscape"
   width="105.33177"
   height="23.504797"
   version="1.1"
   id="svg4"
   sodipodi:docname="express.svg"
   inkscape:version="0.92.2 (5c3e80d, 2017-08-06)">
  <metadata
     id="metadata10">
    <rdf:RDF>
      <cc:Work
         rdf:about="">
        <dc:format>image/svg+xml</dc:format>
        <dc:type
           rdf:resource="http://purl.org/dc/dcmitype/StillImage" />
      </cc:Work>
    </rdf:RDF>
  </metadata>
  <defs
     id="defs8" />
  <sodipodi:namedview
     pagecolor="#ffffff"
     bordercolor="#666666"
     borderopacity="1"
     objecttolerance="10"
     gridtolerance="10"
     guidetolerance="10"
     inkscape:pageopacity="0"
     inkscape:pageshadow="2"
     inkscape:window-width="1366"
     inkscape:window-height="705"
     id="namedview6"
     showgrid="false"
     inkscape:zoom="2.3666667"
     inkscape:cx="52.669"
     inkscape:cy="11.753"
     inkscape:window-x="-8"
     inkscape:window-y="-8"
     inkscape:window-maximized="1"
     inkscape:current-layer="svg4" />
  <path
     d="M 32.669,23.504797 V 0.45979708 h 1.25 V 4.0847971 a 4.74,4.74 0 0 0 0.408,-0.511 c 1.044,-2.166 3.246,-3.53300002 5.65,-3.50600002 2.85,-0.085 5.166,0.97000002 6.527,3.50600002 a 11.27,11.27 0 0 1 0.272,10.3309999 c -1.268,2.842 -4.4,4.255 -7.753,3.736 a 6.27,6.27 0 0 1 -5.004,-3.302 v 9.165 z m 1.25,-14.8929999 0.28,2.7059999 c 0.494,3.08 2.315,4.9 5.174,5.242 a 5.88,5.88 0 0 0 6.459,-3.736 c 1.112,-2.65 1.03,-5.6499999 -0.22,-8.2379999 a 5.76,5.76 0 0 0 -6.068,-3.353 5.61,5.61 0 0 0 -5.012,4.144 28.62,28.62 0 0 0 -0.613,3.234 z m 39.498,3.1319999 a 6.74,6.74 0 0 1 -6.587,5.957 c -5.242,0.264 -7.702,-3.217 -8.093,-7.234 a 11.59,11.59 0 0 1 1.021,-6.3829999 7.12,7.12 0 0 1 7.412,-3.97400002 6.81,6.81 0 0 1 6.042,5.18300002 34.97,34.97 0 0 1 0.587,3.83 H 60.032 c -0.255,3.6419999 1.702,6.5699999 4.476,7.2759999 3.455,0.85 6.408,-0.647 7.48,-3.932 0.238,-0.843 0.672,-0.962 1.438,-0.723 z M 60.022,7.9567971 h 12.314 c -0.077,-3.88 -2.493,-6.7 -5.77,-6.732 -3.7,-0.06 -6.383,2.647 -6.544,6.732 z m 15.94,3.8719999 h 1.207 a 4.84,4.84 0 0 0 2.842,4.17 7.43,7.43 0 0 0 6.451,-0.17 2.9,2.9 0 0 0 1.702,-2.851 2.63,2.63 0 0 0 -1.77,-2.63 C 85.066,9.8537971 83.654,9.5817971 82.301,9.1477971 a 30,30 0 0 1 -4.119,-1.506 c -2.18,-1.064 -2.315,-5.208 0.153,-6.52 a 8.69,8.69 0 0 1 8.306,-0.12800002 c 1.594,0.88000002 2.475,2.65700002 2.213,4.46000002 h -1.035 c 0,-0.05 -0.094,-0.094 -0.094,-0.145 -0.128,-3.3 -2.902,-4.33200002 -5.88,-4.042 -0.9,0.1 -1.753,0.372 -2.553,0.774 a 2.55,2.55 0 0 0 -1.48,2.553 2.55,2.55 0 0 0 1.702,2.4 c 1.3,0.477 2.68,0.783 4.025,1.157 l 3.25,0.85 a 3.84,3.84 0 0 1 2.638,3.4639999 c 0.26,1.745 -0.63,3.46 -2.204,4.255 -2.842,1.608 -7.523,1.183 -9.608,-0.85 -1.067,-1.073 -1.662,-2.53 -1.65,-4.042 z m 28.78,-6.3739999 h -1.132 c 0,-0.153 -0.06,-0.3 -0.077,-0.417 a 3.7,3.7 0 0 0 -3.013,-3.557 7.43,7.43 0 0 0 -4.774,0.23 2.9,2.9 0 0 0 -2.102,2.766 2.67,2.67 0 0 0 2.042,2.689 l 5.174,1.328 a 14.39,14.39 0 0 1 1.65,0.502 c 1.65,0.6 2.77,2.1319999 2.82,3.8829999 a 4.25,4.25 0 0 1 -2.6,4.04 9.47,9.47 0 0 1 -7.659,0.077 5.31,5.31 0 0 1 -3.2,-5.157 h 1.106 c 0.416,2.005 1.793,3.675 3.682,4.465 1.889,0.79 4.046,0.596 5.764,-0.516 a 3.04,3.04 0 0 0 1.634,-2.842 2.63,2.63 0 0 0 -1.796,-2.613 C 100.933,9.8387971 99.521,9.5757971 98.168,9.1327971 a 30.15,30.15 0 0 1 -4.144,-1.489 c -2.128,-1.047 -2.298,-5.157 0.128,-6.468 a 8.57,8.57 0 0 1 8.442,-0.094 4.45,4.45 0 0 1 2.136,4.366 z M 30.612,17.284797 a 1.95,1.95 0 0 1 -2.417,-0.919 l -4.4,-6.085 -0.638,-0.8499999 -5.106,6.9439999 a 1.87,1.87 0 0 1 -2.298,0.902 l 6.578,-8.8249999 -6.12,-7.97400002 c 0.908,-0.328 1.92,0.028 2.425,0.85000002 l 4.56,6.16 4.587,-6.136 a 1.83,1.83 0 0 1 2.281,-0.85100002 l -2.375,3.15100002 -3.217,4.187 a 0.85,0.85 0 0 0 0,1.268 l 6.127,8.1779999 z M 58.542,0.39279708 V 1.5927971 a 6.17,6.17 0 0 0 -6.57,6.374 q 0,4.2039999 0,8.4079999 v 0.953 H 50.755 V 0.46779708 h 1.2 V 3.9227971 c 1.472,-2.52 3.744,-3.45500002 6.595,-3.52300002 z m -58.54,7.94900002 0.536,-2.647 c 1.472,-5.23400002 7.472,-7.412 11.6,-4.17 2.417,1.898 3.02,4.587 2.902,7.617 H 1.423 c -0.22,5.4119999 3.685,8.6799999 8.68,7.0119999 1.646,-0.6 2.885,-1.968 3.293,-3.668 0.264,-0.85 0.7,-0.996 1.498,-0.75 a 6.91,6.91 0 0 1 -3.302,5.047 8,8 0 0 1 -9.319,-1.191 c -1.216,-1.367 -1.95,-3.095 -2.093,-4.92 0,-0.3 -0.1,-0.58 -0.17,-0.8499999 Q 0,9.0647971 0,8.3417971 Z m 1.438,-0.366 h 12.314 c -0.077,-3.923 -2.553,-6.706 -5.855,-6.732 -3.676,-0.05 -6.306,2.672 -6.468,6.715 z"
     id="path2"
     inkscape:connector-curvature="0" />
</svg>
